# xmcd
#
# Track frame offsets:
# 150
# 23942
# 43898
# 59052
# 77808
# 98245
# 113613
# 141619
# 161280
# 183562
# 207888
#
# Disc length: 3165 seconds
#
#
# Revision: 0
# Processed by: cddbd v1.5.1PL2 Copyright (c) Steve Scherf et al.
# Submitted via: FreeRIP 2.944 
#
DISCID=9d0c5b0b
DTITLE=Tift Merritt - Bramble Rose
DYEAR=2002
DGENRE=Country
TTITLE0=Trouble Over Me
TTITLE1=Virginia, No One Can Warn You
TTITLE2=Neighborhood
TTITLE3=Bird of Freedom
TTITLE4=Bramble Rose
TTITLE5=I Know Him Too
TTITLE6=Sunday
TTITLE7=Supposed To Make You Happy
TTITLE8=Diamond Shoes
TTITLE9=Are You Still In Love With Me
TTITLE10=When I Cross Over
EXTD=
EXTT0=
EXTT1=
EXTT2=
EXTT3=
EXTT4=
EXTT5=
EXTT6=
EXTT7=
EXTT8=
EXTT9=
EXTT10=
PLAYORDER=
